<svg width="17" height="16" viewBox="0 0 16 17" class="MuiSvgIcon-root MuiSvgIcon-fontSizeMedium freelancer-dashboard-header__icon css-1bfi1w6" focusable="false" aria-hidden="true"><path fill-rule="evenodd" clip-rule="evenodd" d="M9.46 9.996c.521-.306.9-.81 1.057-1.4a2.34 2.34 0 0 0-.226-1.748 2.276 2.276 0 0 0-1.378-1.073 2.262 2.262 0 0 0-2.388.822c-.181.24-.314.514-.39.807a2.325 2.325 0 0 0 .226 1.749c.302.528.798.914 1.379 1.072.58.158 1.2.076 1.72-.23ZM6.647 5.043c1.605-.941 3.665-.38 4.591 1.25.445.785.565 1.716.334 2.59a3.41 3.41 0 0 1-1.564 2.074 3.316 3.316 0 0 1-2.55.34 3.371 3.371 0 0 1-2.042-1.59 3.427 3.427 0 0 1-.335-2.59c.113-.434.31-.841.578-1.197.27-.356.605-.654.988-.877ZM4.43 10.285a3.459 3.459 0 0 1-.648 4.23 7.822 7.822 0 0 1-.86-.716c.428-.343.72-.83.823-1.373a2.338 2.338 0 0 0-.261-1.586 2.28 2.28 0 0 0-.583-.677 2.239 2.239 0 0 0-2.221-.31A8.063 8.063 0 0 1 .5 8.74a3.318 3.318 0 0 1 3.066.542c.35.273.644.614.864 1.004Zm7.457-7.161c.166-.631.507-1.2.984-1.64.302.218.59.457.859.716a2.324 2.324 0 0 0 .022 3.637 2.238 2.238 0 0 0 2.22.309c.087.368.147.738.18 1.11a3.276 3.276 0 0 1-1.013.167c-.295 0-.59-.04-.875-.118a3.318 3.318 0 0 1-1.177-.587 3.378 3.378 0 0 1-.864-1.003 3.425 3.425 0 0 1-.336-2.591Zm-3.56 9.446c1.606 0 2.95 1.152 3.281 2.684-.34.16-.688.292-1.04.398a2.318 2.318 0 0 0-.76-1.41 2.249 2.249 0 0 0-1.482-.562c-.544 0-1.07.2-1.48.562a2.317 2.317 0 0 0-.762 1.408 7.802 7.802 0 0 1-1.04-.396c.331-1.533 1.676-2.684 3.282-2.684Zm0-9.14C6.72 3.43 5.374 2.277 5.043.746c.34-.16.689-.292 1.04-.398.079.547.349 1.047.76 1.41.412.361.938.56 1.482.561 1.14 0 2.083-.857 2.242-1.97.356.107.703.24 1.04.397-.33 1.532-1.675 2.683-3.282 2.683Zm5.937 5.265a3.284 3.284 0 0 1 1.887.045 8.188 8.188 0 0 1-.18 1.113 2.239 2.239 0 0 0-2.218.31 2.315 2.315 0 0 0-.81 2.426c.125.48.401.904.786 1.21a7.8 7.8 0 0 1-.86.715 3.397 3.397 0 0 1-.982-1.638 3.44 3.44 0 0 1 .335-2.59 3.348 3.348 0 0 1 2.042-1.592ZM2.39 7.305c-.286.078-.58.118-.876.118a3.272 3.272 0 0 1-1.011-.167c.034-.374.095-.744.18-1.109a2.238 2.238 0 0 0 2.218-.31 2.313 2.313 0 0 0 .81-2.425A2.287 2.287 0 0 0 2.923 2.2c.27-.259.557-.498.86-.716.476.439.817 1.008.982 1.639a3.445 3.445 0 0 1-1.2 3.594c-.35.273-.75.473-1.176.587Z" fill="currentColor"></path></svg>
