<svg xmlns="http://www.w3.org/2000/svg" version="1.0" width="109.000000pt" height="102.000000pt" viewBox="0 0 109.000000 102.000000" preserveAspectRatio="xMidYMid meet">

<g transform="translate(15.000000,102.000000) scale(0.100000,-0.130000)" fill="#000000" stroke="none">
<path d="M190 1011 c-71 -23 -131 -74 -166 -141 -17 -31 -19 -63 -21 -305 -1 -198 1 -261 8 -235 11 35 49 93 79 118 8 7 39 25 68 39 91 43 201 22 276 -53 55 -55 71 -98 71 -193 l1 -83 66 -64 c53 -49 80 -67 123 -79 121 -36 253 28 303 144 20 48 20 156 -1 204 -19 45 -580 602 -635 631 -39 20 -133 30 -172 17z"/>
</g>
</svg>
