<svg xmlns="http://www.w3.org/2000/svg" version="1.0" width="200.0pt" height="102.0pt" viewBox="-30 9 500.000000 120.000000" preserveAspectRatio="xMidYMid meet">

<g transform="translate(0.000000,130.000000) scale(0.100000,-0.120000)" fill="#000000" stroke="none">
<path d="M190 1011 c-71 -23 -131 -74 -100 -141 -17 -31 -19 -63 -21 -305 -1 -198 1 -261 8 -235 11 35 49 93 79 118 8 7 39 25 68 39 91 43 201 22 276 -53 55 -55 71 -98 71 -193 l1 -83 66 -64 c53 -49 80 -67 123 -79 121 -36 253 28 303 144 19 47 19 156 -1 204 -19 45 -579 602 -635 631 -39 20 -133 30 -172 17z"/>
<path d="M3610 615 c0 -36 -3 -65 -7 -65 -5 1 -19 7 -33 15 -56 32 -151 9 -191 -47 -64 -89 -9 -224 100 -243 52 -9 119 20 152 66 22 32 24 44 27 187 l4 152 -26 0 c-25 0 -26 -2 -26 -65z m-41 -111 c59 -49 47 -137 -23 -171 -42 -20 -79 -11 -117 27 -90 90 42 227 140 144z"/>
<path d="M2760 561 c-19 -10 -45 -33 -57 -51 -20 -29 -23 -46 -23 -137 0 -103 0 -104 23 -101 21 3 22 9 27 106 5 98 6 105 33 128 41 35 97 33 139 -5 32 -28 33 -32 38 -128 5 -90 7 -98 25 -98 18 0 20 8 23 75 2 41 -2 93 -8 115 -29 98 -132 143 -220 96z"/>
<path d="M3105 566 c-100 -46 -120 -176 -39 -253 65 -61 175 -49 228 24 45 62 27 170 -37 215 -37 26 -111 33 -152 14z m115 -51 c62 -32 69 -108 16 -161 -54 -54 -133 -38 -162 33 -39 92 56 175 146 128z"/>
<path d="M3772 563 c-67 -33 -101 -123 -73 -195 25 -67 112 -110 180 -90 40 13 91 47 91 63 0 15 -54 10 -90 -7 -26 -14 -39 -15 -70 -5 -32 9 -70 45 -70 66 0 3 56 5 125 5 l125 0 0 39 c0 102 -122 172 -218 124z m118 -48 c26 -13 50 -42 50 -59 0 -3 -45 -6 -100 -6 -65 0 -100 4 -100 11 0 6 13 24 29 40 34 33 75 38 121 14z"/>
</g>
</svg>
