<svg xmlns="http://www.w3.org/2000/svg" version="1.0" width="700.000000pt" height="483.000000pt" viewBox="0 0 700.000000 483.000000" preserveAspectRatio="xMidYMid meet">
<metadata>
Created by potrace 1.12, written by Peter Selinger 2001-2015
</metadata>
<g transform="translate(0.000000,483.000000) scale(0.100000,-0.100000)" fill="#000000" stroke="none">
<path d="M2315 4134 l-25 -27 0 -878 0 -878 23 -27 23 -26 929 1 930 1 22 27 23 28 0 874 0 875 -27 28 -27 28 -923 0 -924 0 -24 -26z m1883 -16 c9 -9 12 -220 12 -887 0 -800 -1 -876 -17 -893 -15 -17 -57 -18 -926 -18 -833 0 -912 1 -929 17 -17 15 -18 56 -18 893 0 668 3 879 12 888 17 17 1849 17 1866 0z"/>
<path d="M3234 4000 c-32 -13 -51 -45 -159 -262 -91 -184 -99 -198 -125 -198 -14 0 -30 -3 -34 -7 -4 -5 -51 -13 -104 -20 -339 -43 -332 -41 -356 -78 -36 -55 -28 -68 163 -260 l180 -180 -11 -80 c-5 -44 -14 -87 -18 -96 -4 -8 -11 -51 -15 -95 -4 -43 -12 -84 -17 -90 -5 -7 -9 -42 -10 -78 -1 -60 2 -70 27 -96 16 -17 37 -30 46 -30 16 0 324 153 399 199 19 11 41 24 48 27 13 6 175 -73 379 -185 83 -46 117 -46 158 -1 15 17 19 34 17 86 -1 36 -5 71 -9 77 -5 7 -13 48 -20 92 -6 44 -18 123 -27 175 l-16 95 180 180 c190 190 199 204 164 253 -30 43 -26 42 -359 87 -178 24 -152 1 -260 220 -52 106 -95 197 -95 202 0 16 -54 61 -80 67 -14 3 -35 1 -46 -4z m68 -67 c9 -10 57 -101 108 -203 51 -102 101 -195 112 -207 24 -26 59 -34 302 -68 181 -25 216 -37 216 -73 0 -8 -79 -95 -176 -193 l-176 -178 5 -58 c3 -32 13 -98 22 -148 51 -283 51 -315 -1 -315 -14 0 -117 47 -229 105 -112 58 -211 105 -220 105 -9 0 -108 -47 -220 -105 -112 -58 -215 -105 -229 -105 -53 0 -53 23 -1 326 14 80 25 157 25 171 0 21 -37 64 -175 203 -222 223 -223 228 -45 254 58 8 155 22 215 31 129 18 144 22 169 44 10 9 61 102 113 206 52 105 102 198 111 208 8 9 25 17 37 17 12 0 29 -8 37 -17z"/>
<path d="M1343 2171 c-52 -20 -78 -44 -112 -101 -24 -42 -26 -55 -29 -187 -5 -209 19 -270 132 -333 31 -17 57 -22 115 -22 93 -1 147 25 203 98 l38 49 1 130 c2 161 1 191 -13 235 -14 47 -73 108 -126 131 -54 23 -150 24 -209 0z m183 -132 l29 -30 0 -153 c0 -169 -3 -178 -63 -203 -44 -18 -96 -8 -129 26 -25 26 -25 29 -25 176 l0 150 31 32 c27 28 38 33 79 33 41 0 53 -5 78 -31z"/>
<path d="M1775 2178 c-3 -7 -4 -155 -3 -328 l3 -315 68 -3 67 -3 0 131 0 130 145 0 144 0 3 -127 3 -128 65 0 65 0 0 325 0 325 -65 0 -65 0 -5 -130 -5 -130 -135 -5 c-74 -3 -139 -4 -143 -2 -4 2 -7 63 -6 135 l1 132 -66 3 c-48 2 -68 -1 -71 -10z"/>
<path d="M2585 2180 c-3 -5 -1 -17 4 -27 6 -10 15 -40 21 -68 6 -27 18 -76 26 -107 7 -32 21 -86 30 -120 8 -35 22 -90 30 -123 12 -45 38 -169 44 -202 0 -2 38 -3 85 -3 91 0 105 8 105 62 0 13 4 28 9 34 5 5 14 29 19 54 17 71 34 133 43 155 4 11 10 37 14 58 3 20 10 37 14 37 11 0 21 -25 21 -54 0 -12 4 -26 9 -31 5 -6 14 -30 19 -55 10 -42 19 -76 55 -205 l13 -50 90 0 89 0 13 60 c8 33 19 85 25 115 7 30 15 60 19 65 3 6 9 33 13 60 4 28 10 55 14 60 3 6 11 35 18 65 25 119 35 156 45 177 20 40 5 53 -62 53 -60 0 -61 0 -76 -35 -8 -20 -12 -40 -9 -45 3 -5 1 -17 -4 -27 -6 -10 -15 -43 -20 -73 -6 -30 -17 -86 -26 -125 -9 -38 -20 -90 -23 -114 -8 -49 -32 -69 -32 -27 0 13 -4 27 -9 30 -5 3 -12 27 -16 52 -4 26 -11 54 -15 63 -5 9 -14 36 -19 61 -16 73 -56 214 -64 228 -5 7 -30 12 -61 12 -62 0 -71 -8 -80 -72 -4 -26 -11 -50 -16 -53 -4 -3 -11 -28 -15 -55 -4 -27 -10 -52 -15 -55 -4 -3 -11 -26 -15 -51 -4 -26 -11 -54 -16 -63 -5 -9 -12 -38 -17 -66 -12 -78 -34 -67 -49 25 -6 41 -19 107 -28 145 -9 39 -22 104 -28 145 -7 41 -16 81 -21 88 -9 14 -142 17 -151 2z"/>
<path d="M3665 2171 c-48 -22 -112 -90 -121 -128 -3 -16 -8 -35 -11 -43 -8 -25 -3 -272 7 -314 21 -93 111 -157 225 -159 103 -3 167 31 224 118 25 39 26 44 26 205 0 134 -3 171 -17 200 -20 43 -81 101 -127 124 -46 22 -154 20 -206 -3z m189 -143 l36 -42 0 -131 0 -132 -33 -38 c-31 -36 -38 -39 -87 -39 -47 0 -56 4 -81 32 l-29 32 0 145 0 144 31 36 c27 31 37 35 79 35 44 0 51 -3 84 -42z"/>
<path d="M4074 2175 c-4 -8 -1 -34 6 -58 6 -23 14 -53 17 -67 2 -14 7 -32 11 -40 3 -8 11 -42 18 -75 7 -33 20 -89 29 -125 9 -36 22 -90 30 -120 7 -30 19 -77 27 -105 l13 -50 83 -3 c67 -2 83 0 87 13 3 8 8 23 12 33 7 18 24 85 43 167 6 28 15 59 21 70 5 11 13 40 17 65 11 64 33 59 48 -10 20 -85 36 -143 45 -162 5 -9 12 -36 15 -60 4 -24 10 -47 14 -53 5 -5 10 -21 12 -35 3 -24 6 -25 83 -28 87 -3 105 6 105 55 0 13 4 31 10 41 9 17 19 57 43 174 7 31 15 60 20 64 4 4 7 19 7 33 0 28 27 138 41 163 5 10 12 42 15 73 l7 56 -69 -3 -69 -3 -10 -55 c-5 -30 -13 -59 -16 -65 -4 -5 -10 -39 -14 -75 -4 -36 -11 -69 -15 -75 -4 -5 -13 -52 -20 -103 -11 -76 -16 -92 -29 -90 -11 2 -18 19 -23 52 -4 26 -10 55 -14 65 -4 9 -13 39 -20 66 -7 28 -20 77 -29 110 -9 33 -21 77 -26 99 -18 70 -24 76 -84 76 -50 0 -56 -2 -69 -29 -9 -16 -18 -48 -22 -72 -4 -24 -10 -48 -14 -54 -4 -5 -12 -30 -18 -55 -19 -81 -34 -135 -42 -155 -5 -11 -11 -37 -15 -58 -8 -49 -28 -44 -36 9 -20 115 -31 169 -39 185 -6 10 -10 30 -10 46 0 15 -8 62 -18 103 l-19 75 -66 3 c-54 2 -68 0 -73 -13z"/>
<path d="M5200 1951 l0 -239 61 -4 c36 -2 63 1 65 7 3 6 3 114 2 240 l-3 230 -62 3 -63 3 0 -240z"/>
<path d="M5207 1654 c-4 -4 -7 -34 -7 -66 l0 -59 63 3 62 3 0 60 0 60 -55 3 c-31 2 -59 0 -63 -4z"/>
<path d="M3280 1372 c-88 -94 -132 -170 -151 -262 -22 -101 -2 -179 53 -210 24 -13 30 -13 62 3 20 9 36 23 36 31 0 9 7 12 20 9 13 -4 22 1 27 13 8 23 104 134 115 134 5 0 8 -12 8 -27 0 -65 14 -104 47 -138 46 -47 103 -45 103 5 0 9 8 24 18 34 11 9 24 34 31 56 6 22 16 40 20 40 5 0 17 25 26 55 13 41 23 55 36 55 13 0 19 7 19 24 0 26 104 130 124 123 14 -4 20 -53 10 -75 -9 -20 -35 -233 -37 -307 -2 -39 1 -50 13 -50 15 0 16 8 21 123 2 38 5 42 28 42 14 0 40 9 58 20 l32 19 38 -56 c21 -31 59 -79 85 -107 38 -41 49 -49 60 -38 10 10 8 15 -9 27 -21 15 -109 130 -132 173 -11 21 -7 29 52 91 89 94 94 141 24 195 -28 22 -45 26 -96 26 -34 0 -69 -4 -79 -9 -9 -4 -43 -21 -75 -36 -32 -16 -76 -44 -98 -63 -22 -19 -41 -33 -43 -31 -2 2 -11 19 -20 36 -22 43 -84 75 -138 71 -37 -3 -43 -7 -64 -48 -13 -25 -29 -76 -36 -114 -13 -66 -15 -70 -90 -141 -125 -120 -193 -152 -219 -103 -14 27 -4 141 17 182 7 16 14 33 14 38 0 15 81 128 108 148 33 26 57 22 57 -10 0 -36 29 -32 33 4 4 34 -31 76 -62 76 -12 -1 -32 -13 -46 -28z m820 -17 c51 -27 31 -94 -53 -174 -30 -28 -39 -32 -51 -22 -20 16 -38 5 -31 -19 4 -13 -3 -25 -25 -40 -17 -12 -34 -20 -37 -17 -3 3 0 46 7 94 23 169 21 164 60 178 49 18 96 18 130 0z m-431 -49 c39 -36 24 -122 -48 -264 -30 -59 -73 -112 -90 -112 -6 0 -18 11 -27 25 -39 60 -6 284 53 356 18 22 86 19 112 -5z"/>
<path d="M4500 1390 c-8 -5 -25 -10 -37 -10 -23 0 -129 -66 -153 -95 -10 -12 -11 -21 -3 -33 14 -24 32 -21 46 7 13 26 43 49 52 40 5 -6 -3 -45 -42 -194 -24 -92 -28 -188 -9 -204 17 -14 18 -13 21 39 3 48 26 171 36 195 4 11 11 36 15 55 3 19 10 41 15 50 4 8 11 32 14 52 7 46 21 53 106 62 70 7 119 -4 119 -26 0 -19 -59 -88 -84 -99 -42 -18 -171 -116 -171 -130 0 -46 112 13 220 116 56 53 65 68 65 97 0 35 -11 50 -57 76 -27 14 -131 16 -153 2z"/>
<path d="M2650 1388 c0 -2 -3 -34 -5 -73 -3 -38 -12 -107 -21 -153 -9 -46 -14 -109 -12 -143 4 -53 9 -64 40 -96 22 -22 42 -34 51 -30 17 7 87 141 87 168 0 9 7 22 15 29 8 7 15 21 15 31 0 10 5 21 10 24 6 3 10 17 10 29 0 13 7 29 15 36 8 7 15 18 15 25 0 6 11 33 25 59 20 37 23 51 15 67 -17 30 -29 23 -52 -28 -11 -27 -37 -85 -59 -131 -21 -46 -39 -90 -39 -97 0 -17 -56 -124 -76 -145 -10 -11 -17 -11 -25 -3 -13 13 4 287 22 355 10 39 -1 78 -21 78 -6 0 -10 -1 -10 -2z"/>
<path d="M2500 1369 c-167 -30 -220 -49 -220 -79 0 -28 16 -33 45 -14 16 10 30 13 35 8 12 -12 -35 -142 -61 -170 -12 -13 -16 -24 -11 -28 6 -3 10 -31 10 -61 -1 -59 16 -94 56 -120 20 -13 31 -14 72 -4 88 21 139 58 116 81 -9 9 -15 9 -24 0 -7 -7 -19 -12 -27 -12 -9 0 -29 -7 -45 -15 -35 -18 -90 -20 -104 -2 -6 7 -8 33 -4 66 7 52 9 55 42 63 19 5 42 12 51 17 9 6 34 13 55 17 47 9 88 34 76 46 -9 9 -142 -16 -174 -33 -28 -14 -27 1 1 90 29 89 38 99 98 100 17 1 35 6 38 11 3 6 17 10 29 10 25 0 51 22 39 33 -8 8 -32 7 -93 -4z"/>
<path d="M2035 1360 c-3 -5 -16 -10 -28 -10 -28 0 -168 -70 -174 -88 -3 -7 1 -20 9 -29 14 -13 18 -12 44 12 63 58 87 50 66 -23 -6 -20 -13 -57 -17 -82 -4 -25 -11 -52 -16 -61 -5 -9 -11 -51 -13 -92 -7 -94 6 -111 54 -75 18 13 38 35 46 50 8 15 26 31 39 34 14 3 25 13 25 20 0 8 8 17 18 21 9 3 47 38 84 77 106 111 112 164 27 226 -35 25 -51 30 -100 30 -32 0 -61 -4 -64 -10z m178 -58 c34 -34 13 -68 -124 -204 -70 -71 -133 -128 -140 -128 -7 0 -9 9 -5 28 4 15 11 47 16 72 4 25 13 63 19 85 6 22 11 56 11 75 0 50 21 84 55 92 51 12 148 0 168 -20z"/>
</g>
</svg>
